STARTFONT 2.1
FONT -FontForge-DejaVu Sans Mono-Bold-R-Normal-SansMono--24-240-75-75-P-139-ISO10646-1
SIZE 24 75 75
FONTBOUNDINGBOX 29 34 -11 -9
COMMENT "Generated by fontforge, http://fontforge.sourceforge.net"
COMMENT "Copyright (c) 2003 by Bitstream, Inc. All Rights Reserved."
COMMENT "DejaVu changes are in public domain"
STARTPROPERTIES 40
FOUNDRY "FontForge"
FAMILY_NAME "DejaVu Sans Mono"
WEIGHT_NAME "Bold"
SLANT "R"
SETWIDTH_NAME "Normal"
ADD_STYLE_NAME "SansMono"
PIXEL_SIZE 24
POINT_SIZE 240
RESOLUTION_X 75
RESOLUTION_Y 75
SPACING "P"
AVERAGE_WIDTH 139
CHARSET_REGISTRY "ISO10646"
CHARSET_ENCODING "1"
FONTNAME_REGISTRY ""
CHARSET_COLLECTIONS "ASCII ISOLatin1Encoding ISO8859-2 ISO8859-5 ISO8859-7 ISO8859-9 ISO8859-6 ISO8859-4 ISO10646-1"
FONT_NAME "DejaVuSansMono-Bold"
FACE_NAME "DejaVu Sans Mono Bold"
COPYRIGHT "Copyright (c) 2003 by Bitstream, Inc. All Rights Reserved."
FONT_VERSION "2.37"
FONT_ASCENT 18
FONT_DESCENT 6
UNDERLINE_POSITION -2
UNDERLINE_THICKNESS 2
X_HEIGHT 12
CAP_HEIGHT 17
RAW_ASCENT 759
RAW_DESCENT 240
NORM_SPACE 14
RELATIVE_WEIGHT 70
RELATIVE_SETWIDTH 50
SUPERSCRIPT_X 0
SUPERSCRIPT_Y 11
SUPERSCRIPT_SIZE 16
SUBSCRIPT_X 0
SUBSCRIPT_Y 3
SUBSCRIPT_SIZE 16
FIGURE_WIDTH 14
AVG_LOWERCASE_WIDTH 140
AVG_UPPERCASE_WIDTH 140
ENDPROPERTIES
CHARS 3316
STARTCHAR space
ENCODING 32
SWIDTH 602 0
DWIDTH 14 0
BBX 1 1 0 0
BITMAP
00
ENDCHAR
STARTCHAR exclam
ENCODING 33
SWIDTH 602 0
DWIDTH 14 0
BBX 3 18 6 0
BITMAP
E0
E0
E0
E0
E0
E0
E0
E0
E0
E0
E0
E0
E0
00
00
E0
E0
E0
ENDCHAR
STARTCHAR quotedbl
ENCODING 34
SWIDTH 602 0
DWIDTH 14 0
BBX 9 7 3 11
BITMAP
E380
E380
E380
E380
E380
E380
E380
ENDCHAR
STARTCHAR numbersign
ENCODING 35
SWIDTH 602 0
DWIDTH 14 0
BBX 14 17 0 0
BITMAP
0738
0738
0630
0670
7FFC
7FFC
7FFC
0C60
1CE0
1CC0
FFF8
FFF8
FFF8
39C0
3180
3180
7380
ENDCHAR
STARTCHAR dollar
ENCODING 36
SWIDTH 602 0
DWIDTH 14 0
BBX 12 22 1 -4
BITMAP
0600
0600
0600
1FC0
7FE0
FFE0
E620
E600
F600
7F00
7FC0
1FE0
06F0
0670
C6F0
FFF0
FFE0
3F80
0600
0600
0600
0600
ENDCHAR
STARTCHAR percent
ENCODING 37
SWIDTH 602 0
DWIDTH 14 0
BBX 14 18 0 0
BITMAP
3800
7C00
C600
C600
C600
7C08
3838
00E0
0180
0600
1800
7070
40F8
018C
018C
018C
00F8
0070
ENDCHAR
STARTCHAR ampersand
ENCODING 38
SWIDTH 602 0
DWIDTH 14 0
BBX 14 18 1 0
BITMAP
0FC0
1FE0
3FE0
3820
3800
3C00
1C00
1E00
3F00
779C
E79C
E3DC
E1FC
E0F8
F8F0
7FF8
3FF8
1FBC
ENDCHAR
STARTCHAR quotesingle
ENCODING 39
SWIDTH 602 0
DWIDTH 14 0
BBX 3 7 6 11
BITMAP
E0
E0
E0
E0
E0
E0
E0
ENDCHAR
STARTCHAR parenleft
ENCODING 40
SWIDTH 602 0
DWIDTH 14 0
BBX 6 21 4 -3
BITMAP
1C
38
38
70
70
70
E0
E0
E0
E0
E0
E0
E0
E0
E0
70
70
70
38
38
1C
ENDCHAR
STARTCHAR parenright
ENCODING 41
SWIDTH 602 0
DWIDTH 14 0
BBX 6 21 4 -3
BITMAP
E0
70
70
38
38
38
1C
1C
1C
1C
1C
1C
1C
1C
1C
38
38
38
70
70
E0
ENDCHAR
STARTCHAR asterisk
ENCODING 42
SWIDTH 602 0
DWIDTH 14 0
BBX 12 12 1 6
BITMAP
0600
0600
4620
F6F0
7FE0
1F80
1F80
7FE0
F6F0
4620
0600
0600
ENDCHAR
STARTCHAR plus
ENCODING 43
SWIDTH 602 0
DWIDTH 14 0
BBX 13 13 1 1
BITMAP
0700
0700
0700
0700
0700
FFF8
FFF8
FFF8
0700
0700
0700
0700
0700
ENDCHAR
STARTCHAR comma
ENCODING 44
SWIDTH 602 0
DWIDTH 14 0
BBX 5 8 4 -4
BITMAP
78
78
78
78
78
70
F0
E0
ENDCHAR
STARTCHAR hyphen
ENCODING 45
SWIDTH 602 0
DWIDTH 14 0
BBX 7 3 4 5
BITMAP
FE
FE
FE
ENDCHAR
STARTCHAR period
ENCODING 46
SWIDTH 602 0
DWIDTH 14 0
BBX 4 4 5 0
BITMAP
F0
F0
F0
F0
ENDCHAR
STARTCHAR slash
ENCODING 47
SWIDTH 602 0
DWIDTH 14 0
BBX 12 20 1 -2
BITMAP
0070
00E0
00E0
01C0
01C0
01C0
0380
0380
0700
0700
0E00
0E00
1C00
1C00
3800
3800
3800
7000
7000
E000
ENDCHAR
STARTCHAR zero
ENCODING 48
SWIDTH 602 0
DWIDTH 14 0
BBX 12 18 1 0
BITMAP
1F80
3FC0
7FE0
70E0
F0E0
E070
E070
E770
E770
E770
E070
E070
E070
F0E0
70E0
7FE0
3FC0
1F00
ENDCHAR
STARTCHAR one
ENCODING 49
SWIDTH 602 0
DWIDTH 14 0
BBX 11 18 2 0
BITMAP
3E00
FE00
FE00
CE00
0E00
0E00
0E00
0E00
0E00
0E00
0E00
0E00
0E00
0E00
0E00
FFE0
FFE0
FFE0
ENDCHAR
STARTCHAR two
ENCODING 50
SWIDTH 602 0
DWIDTH 14 0
BBX 12 18 1 0
BITMAP
3F80
FFC0
FFE0
C0F0
0070
0070
0070
00E0
01C0
03C0
0780
0F00
1E00
3C00
7800
FFF0
FFF0
FFF0
ENDCHAR
STARTCHAR three
ENCODING 51
SWIDTH 602 0
DWIDTH 14 0
BBX 12 18 1 0
BITMAP
1F80
7FE0
7FF0
40F0
0070
0070
00F0
1FE0
1F80
1FE0
00F0
0070
0070
0070
C0F0
FFE0
FFE0
3F80
ENDCHAR
STARTCHAR four
ENCODING 52
SWIDTH 602 0
DWIDTH 14 0
BBX 12 18 1 0
BITMAP
03C0
03C0
07C0
0FC0
0DC0
1DC0
39C0
39C0
71C0
61C0
E1C0
FFF0
FFF0
FFF0
01C0
01C0
01C0
01C0
ENDCHAR
STARTCHAR five
ENCODING 53
SWIDTH 602 0
DWIDTH 14 0
BBX 12 18 1 0
BITMAP
7FE0
7FE0
7FE0
7000
7000
7000
7F80
7FC0
7FE0
41F0
0070
0070
0070
0070
81F0
FFE0
FFC0
3F00
ENDCHAR
STARTCHAR six
ENCODING 54
SWIDTH 602 0
DWIDTH 14 0
BBX 12 18 1 0
BITMAP
0FC0
1FE0
3FE0
7820
7000
E000
EF80
FFE0
FFE0
F0F0
E070
E070
E070
E070
70F0
7FE0
3FC0
1F80
ENDCHAR
STARTCHAR seven
ENCODING 55
SWIDTH 602 0
DWIDTH 14 0
BBX 12 18 1 0
BITMAP
FFF0
FFF0
FFF0
00F0
00E0
01E0
01C0
01C0
0380
0380
0780
0700
0F00
0E00
0E00
1C00
1C00
3800
ENDCHAR
STARTCHAR eight
ENCODING 56
SWIDTH 602 0
DWIDTH 14 0
BBX 12 18 1 0
BITMAP
1F80
7FE0
7FE0
F0F0
E070
E070
F0F0
7FE0
1F80
7FE0
F0E0
E070
E070
E070
F0F0
7FE0
7FE0
1F80
ENDCHAR
STARTCHAR nine
ENCODING 57
SWIDTH 602 0
DWIDTH 14 0
BBX 12 18 1 0
BITMAP
1F80
3FC0
7FE0
F0E0
E070
E070
E070
E070
F0F0
7FF0
7FF0
1F70
0070
00E0
41E0
7FC0
7F80
3F00
ENDCHAR
STARTCHAR colon
ENCODING 58
SWIDTH 602 0
DWIDTH 14 0
BBX 4 12 5 0
BITMAP
F0
F0
F0
F0
00
00
00
00
F0
F0
F0
F0
ENDCHAR
STARTCHAR semicolon
ENCODING 59
SWIDTH 602 0
DWIDTH 14 0
BBX 5 16 4 -4
BITMAP
78
78
78
78
00
00
00
00
78
78
78
78
78
70
F0
E0
ENDCHAR
STARTCHAR less
ENCODING 60
SWIDTH 602 0
DWIDTH 14 0
BBX 12 13 1 1
BITMAP
0010
00F0
03F0
0FE0
7F00
FC00
E000
FC00
7F00
0FE0
03F0
00F0
0010
ENDCHAR
STARTCHAR equal
ENCODING 61
SWIDTH 602 0
DWIDTH 14 0
BBX 12 9 1 3
BITMAP
FFF0
FFF0
FFF0
0000
0000
0000
FFF0
FFF0
FFF0
ENDCHAR
STARTCHAR greater
ENCODING 62
SWIDTH 602 0
DWIDTH 14 0
BBX 12 13 1 1
BITMAP
8000
F000
FC00
7F00
0FE0
03F0
0070
03F0
0FE0
7F00
FC00
F000
8000
ENDCHAR
STARTCHAR question
ENCODING 63
SWIDTH 602 0
DWIDTH 14 0
BBX 10 18 3 0
BITMAP
7F00
FF80
FFC0
81C0
01C0
01C0
0380
0700
0F00
1C00
3800
3800
3800
3800
0000
3800
3800
3800
ENDCHAR
STARTCHAR at
ENCODING 64
SWIDTH 602 0
DWIDTH 14 0
BBX 14 20 0 -4
BITMAP
07E0
0FF0
3C38
301C
700C
61EC
E7FC
C61C
CC0C
CC0C
CC0C
CC0C
C61C
E7FC
61EC
7000
3800
1C08
0FFC
03F0
ENDCHAR
STARTCHAR A
ENCODING 65
SWIDTH 602 0
DWIDTH 14 0
BBX 14 18 0 0
BITMAP
0780
0FC0
0FC0
0FC0
0FC0
1CE0
1CE0
1CE0
1CE0
3CF0
3870
3FF0
7FF8
7FF8
7038
7038
F03C
F03C
ENDCHAR
STARTCHAR B
ENCODING 66
SWIDTH 602 0
DWIDTH 14 0
BBX 12 18 1 0
BITMAP
FF00
FFC0
FFE0
E1E0
E0E0
E0E0
E1E0
FFC0
FF00
FFE0
E0E0
E070
E070
E070
E0F0
FFF0
FFE0
FF80
ENDCHAR
STARTCHAR C
ENCODING 67
SWIDTH 602 0
DWIDTH 14 0
BBX 11 18 2 0
BITMAP
0FC0
1FE0
3FE0
7860
7020
F000
E000
E000
E000
E000
E000
E000
F000
7020
7860
3FE0
1FE0
0FC0
ENDCHAR
STARTCHAR D
ENCODING 68
SWIDTH 602 0
DWIDTH 14 0
BBX 12 18 2 0
BITMAP
FE00
FF80
FFC0
E1E0
E0E0
E0F0
E070
E070
E070
E070
E070
E070
E0F0
E0E0
E1E0
FFC0
FF80
FE00
ENDCHAR
STARTCHAR E
ENCODING 69
SWIDTH 602 0
DWIDTH 14 0
BBX 11 18 2 0
BITMAP
FFE0
FFE0
FFE0
E000
E000
E000
E000
FFC0
FFC0
FFC0
E000
E000
E000
E000
E000
FFE0
FFE0
FFE0
ENDCHAR
STARTCHAR F
ENCODING 70
SWIDTH 602 0
DWIDTH 14 0
BBX 11 18 2 0
BITMAP
FFE0
FFE0
FFE0
E000
E000
E000
E000
FFC0
FFC0
FFC0
E000
E000
E000
E000
E000
E000
E000
E000
ENDCHAR
STARTCHAR G
ENCODING 71
SWIDTH 602 0
DWIDTH 14 0
BBX 12 18 1 0
BITMAP
0FC0
1FE0
3FE0
7860
7000
F000
E000
E000
E1F0
E1F0
E1F0
E070
F070
7070
7870
3FF0
1FF0
0FC0
ENDCHAR
STARTCHAR H
ENCODING 72
SWIDTH 602 0
DWIDTH 14 0
BBX 11 18 2 0
BITMAP
E0E0
E0E0
E0E0
E0E0
E0E0
E0E0
E0E0
FFE0
FFE0
FFE0
E0E0
E0E0
E0E0
E0E0
E0E0
E0E0
E0E0
E0E0
ENDCHAR
STARTCHAR I
ENCODING 73
SWIDTH 602 0
DWIDTH 14 0
BBX 9 18 3 0
BITMAP
FF80
FF80
FF80
1C00
1C00
1C00
1C00
1C00
1C00
1C00
1C00
1C00
1C00
1C00
1C00
FF80
FF80
FF80
ENDCHAR
STARTCHAR J
ENCODING 74
SWIDTH 602 0
DWIDTH 14 0
BBX 11 18 1 0
BITMAP
0FE0
0FE0
0FE0
00E0
00E0
00E0
00E0
00E0
00E0
00E0
00E0
00E0
00E0
80E0
C1E0
FFC0
FFC0
7F00
ENDCHAR
STARTCHAR K
ENCODING 75
SWIDTH 602 0
DWIDTH 14 0
BBX 12 18 1 0
BITMAP
E0F0
E1E0
E1C0
E3C0
E780
EF00
FE00
FE00
FF00
FF00
F780
E780
E3C0
E3C0
E1E0
E1E0
E0F0
E0F0
ENDCHAR
STARTCHAR L
ENCODING 76
SWIDTH 602 0
DWIDTH 14 0
BBX 11 18 3 0
BITMAP
E000
E000
E000
E000
E000
E000
E000
E000
E000
E000
E000
E000
E000
E000
E000
FFE0
FFE0
FFE0
ENDCHAR
STARTCHAR M
ENCODING 77
SWIDTH 602 0
DWIDTH 14 0
BBX 12 18 1 0
BITMAP
F0F0
F0F0
F9F0
F9F0
F9F0
F9F0
EF70
EF70
EF70
EF70
EF70
E670
E070
E070
E070
E070
E070
E070
ENDCHAR
STARTCHAR N
ENCODING 78
SWIDTH 602 0
DWIDTH 14 0
BBX 11 18 1 0
BITMAP
F0E0
F0E0
F0E0
F8E0
F8E0
F8E0
ECE0
ECE0
ECE0
E6E0
E6E0
E6E0
E3E0
E3E0
E3E0
E1E0
E1E0
E1E0
ENDCHAR
STARTCHAR O
ENCODING 79
SWIDTH 602 0
DWIDTH 14 0
BBX 12 18 1 0
BITMAP
0F00
3FC0
7FE0
70E0
70E0
E070
E070
E070
E070
E070
E070
E070
E070
70E0
70E0
7FE0
3FC0
0F00
ENDCHAR
STARTCHAR P
ENCODING 80
SWIDTH 602 0
DWIDTH 14 0
BBX 11 18 2 0
BITMAP
FF00
FFC0
FFC0
E1E0
E0E0
E0E0
E0E0
E1E0
FFC0
FFC0
FF00
E000
E000
E000
E000
E000
E000
E000
ENDCHAR
STARTCHAR Q
ENCODING 81
SWIDTH 602 0
DWIDTH 14 0
BBX 12 21 1 -3
BITMAP
0F00
3FC0
7FE0
70E0
70E0
E070
E070
E070
E070
E070
E070
E070
E070
70F0
70E0
7FE0
3FC0
0FC0
01E0
00E0
0040
ENDCHAR
STARTCHAR R
ENCODING 82
SWIDTH 602 0
DWIDTH 14 0
BBX 13 18 2 0
BITMAP
FF00
FFC0
FFC0
E1E0
E0E0
E0E0
E0E0
E1E0
FFC0
FF00
FF80
E3C0
E3C0
E1E0
E1E0
E0F0
E0F0
E078
ENDCHAR
STARTCHAR S
ENCODING 83
SWIDTH 602 0
DWIDTH 14 0
BBX 11 18 2 0
BITMAP
1F80
7FC0
7FC0
F0C0
E040
E000
F000
7E00
7F80
1FC0
07E0
01E0
00E0
80E0
E1E0
FFC0
FFC0
7F00
ENDCHAR
STARTCHAR T
ENCODING 84
SWIDTH 602 0
DWIDTH 14 0
BBX 11 18 2 0
BITMAP
FFE0
FFE0
FFE0
0E00
0E00
0E00
0E00
0E00
0E00
0E00
0E00
0E00
0E00
0E00
0E00
0E00
0E00
0E00
ENDCHAR
STARTCHAR U
ENCODING 85
SWIDTH 602 0
DWIDTH 14 0
BBX 11 18 1 0
BITMAP
E0E0
E0E0
E0E0
E0E0
E0E0
E0E0
E0E0
E0E0
E0E0
E0E0
E0E0
E0E0
E0E0
E0E0
F1E0
7FC0
7FC0
1F00
ENDCHAR
STARTCHAR V
ENCODING 86
SWIDTH 602 0
DWIDTH 14 0
BBX 13 18 1 0
BITMAP
F078
F078
7070
7070
7070
78F0
78F0
38E0
38E0
38E0
3DE0
1DC0
1DC0
1DC0
1DC0
0F80
0F80
0F80
ENDCHAR
STARTCHAR W
ENCODING 87
SWIDTH 602 0
DWIDTH 14 0
BBX 14 18 0 0
BITMAP
E01C
E01C
E01C
E01C
601C
7798
77B8
77B8
77B8
77B8
77F8
7CF8
7CF8
3CF8
3CF0
3CF0
3870
3870
ENDCHAR
STARTCHAR X
ENCODING 88
SWIDTH 602 0
DWIDTH 14 0
BBX 14 18 0 0
BITMAP
F03C
7038
7878
3CF0
1CE0
1FE0
0FC0
0FC0
0780
0780
0FC0
0FC0
1FE0
1CE0
3CF0
7878
7038
F03C
ENDCHAR
STARTCHAR Y
ENCODING 89
SWIDTH 602 0
DWIDTH 14 0
BBX 13 18 1 0
BITMAP
F078
7070
78F0
38E0
3DE0
1DC0
1DC0
1FC0
0F80
0F80
0700
0700
0700
0700
0700
0700
0700
0700
ENDCHAR
STARTCHAR Z
ENCODING 90
SWIDTH 602 0
DWIDTH 14 0
BBX 12 18 1 0
BITMAP
FFF0
FFF0
FFF0
00F0
01E0
03C0
03C0
0780
0F00
0F00
1E00
3C00
3C00
7800
F000
FFF0
FFF0
FFF0
ENDCHAR
STARTCHAR bracketleft
ENCODING 91
SWIDTH 602 0
DWIDTH 14 0
BBX 6 21 5 -3
BITMAP
FC
FC
E0
E0
E0
E0
E0
E0
E0
E0
E0
E0
E0
E0
E0
E0
E0
E0
E0
FC
FC
ENDCHAR
STARTCHAR bracketright
ENCODING 93
SWIDTH 602 0
DWIDTH 14 0
BBX 6 21 3 -3
BITMAP
FC
FC
1C
1C
1C
1C
1C
1C
1C
1C
1C
1C
1C
1C
1C
1C
1C
1C
1C
FC
FC
ENDCHAR
STARTCHAR underscore
ENCODING 95
SWIDTH 602 0
DWIDTH 14 0
BBX 14 2 0 -6
BITMAP
FFFC
FFFC
ENDCHAR
STARTCHAR a
ENCODING 97
SWIDTH 602 0
DWIDTH 14 0
BBX 12 13 1 0
BITMAP
3F80
7FE0
7FE0
60F0
0070
3FF0
7FF0
FFF0
E070
E0F0
FFF0
7FF0
3E70
ENDCHAR
STARTCHAR b
ENCODING 98
SWIDTH 602 0
DWIDTH 14 0
BBX 12 18 1 0
BITMAP
E000
E000
E000
E000
E000
E780
EFC0
FFE0
F0F0
E070
E070
E070
E070
E070
F0F0
FFE0
EFC0
E780
ENDCHAR
STARTCHAR c
ENCODING 99
SWIDTH 602 0
DWIDTH 14 0
BBX 11 13 2 0
BITMAP
0FC0
3FE0
7FE0
7820
F000
E000
E000
E000
F000
7820
7FE0
3FE0
0FC0
ENDCHAR
STARTCHAR d
ENCODING 100
SWIDTH 602 0
DWIDTH 14 0
BBX 12 18 1 0
BITMAP
0070
0070
0070
0070
0070
1E70
3F70
7FF0
F0F0
E070
E070
E070
E070
E070
F0F0
7FF0
3F70
1E70
ENDCHAR
STARTCHAR e
ENCODING 101
SWIDTH 602 0
DWIDTH 14 0
BBX 12 13 1 0
BITMAP
1F80
3FC0
7FE0
70F0
E070
FFF0
FFF0
FFF0
E000
F020
7FE0
3FE0
1FC0
ENDCHAR
STARTCHAR f
ENCODING 102
SWIDTH 602 0
DWIDTH 14 0
BBX 10 18 2 0
BITMAP
0FC0
1FC0
1FC0
1C00
1C00
FFC0
FFC0
FFC0
1C00
1C00
1C00
1C00
1C00
1C00
1C00
1C00
1C00
1C00
ENDCHAR
STARTCHAR g
ENCODING 103
SWIDTH 602 0
DWIDTH 14 0
BBX 12 18 1 -5
BITMAP
1E70
3FF0
7FF0
F0F0
E070
E070
E070
E070
E070
F0F0
7FF0
3FF0
1F70
0070
40F0
7FE0
7FE0
3F80
ENDCHAR
STARTCHAR h
ENCODING 104
SWIDTH 602 0
DWIDTH 14 0
BBX 11 18 2 0
BITMAP
E000
E000
E000
E000
E000
E780
FFC0
FFE0
F1E0
E0E0
E0E0
E0E0
E0E0
E0E0
E0E0
E0E0
E0E0
E0E0
ENDCHAR
STARTCHAR i
ENCODING 105
SWIDTH 602 0
DWIDTH 14 0
BBX 11 20 2 0
BITMAP
0E00
0E00
0E00
0E00
0000
0000
0000
7E00
7E00
7E00
0E00
0E00
0E00
0E00
0E00
0E00
0E00
FFE0
FFE0
FFE0
ENDCHAR
STARTCHAR j
ENCODING 106
SWIDTH 602 0
DWIDTH 14 0
BBX 8 25 2 -5
BITMAP
07
07
07
07
00
00
00
3F
3F
3F
07
07
07
07
07
07
07
07
07
07
07
0F
FF
FE
FC
ENDCHAR
STARTCHAR k
ENCODING 107
SWIDTH 602 0
DWIDTH 14 0
BBX 12 18 2 0
BITMAP
E000
E000
E000
E000
E000
E1E0
E3C0
E780
EF00
FE00
FE00
FF00
F700
E780
E3C0
E1C0
E1E0
E0F0
ENDCHAR
STARTCHAR l
ENCODING 108
SWIDTH 602 0
DWIDTH 14 0
BBX 11 18 2 0
BITMAP
FC00
FC00
FC00
1C00
1C00
1C00
1C00
1C00
1C00
1C00
1C00
1C00
1C00
1C00
1E00
1FE0
0FE0
07E0
ENDCHAR
STARTCHAR m
ENCODING 109
SWIDTH 602 0
DWIDTH 14 0
BBX 13 13 1 0
BITMAP
EEF0
FEF0
FFF8
E738
E738
E738
E738
E738
E738
E738
E738
E738
E738
ENDCHAR
STARTCHAR n
ENCODING 110
SWIDTH 602 0
DWIDTH 14 0
BBX 11 13 2 0
BITMAP
E780
FFC0
FFE0
F1E0
E0E0
E0E0
E0E0
E0E0
E0E0
E0E0
E0E0
E0E0
E0E0
ENDCHAR
STARTCHAR o
ENCODING 111
SWIDTH 602 0
DWIDTH 14 0
BBX 12 13 1 0
BITMAP
1F80
3FC0
7FE0
F0E0
E070
E070
E070
E070
E070
70E0
7FE0
3FC0
1F80
ENDCHAR
STARTCHAR p
ENCODING 112
SWIDTH 602 0
DWIDTH 14 0
BBX 12 18 1 -5
BITMAP
E780
EFC0
FFE0
F0F0
E070
E070
E070
E070
E070
F0F0
FFE0
EFC0
E780
E000
E000
E000
E000
E000
ENDCHAR
STARTCHAR q
ENCODING 113
SWIDTH 602 0
DWIDTH 14 0
BBX 12 18 1 -5
BITMAP
1E70
3F70
7FF0
F0F0
E070
E070
E070
E070
E070
F0F0
7FF0
3F70
1E70
0070
0070
0070
0070
0070
ENDCHAR
STARTCHAR r
ENCODING 114
SWIDTH 602 0
DWIDTH 14 0
BBX 10 13 3 0
BITMAP
E780
EFC0
FFC0
F840
F000
E000
E000
E000
E000
E000
E000
E000
E000
ENDCHAR
STARTCHAR s
ENCODING 115
SWIDTH 602 0
DWIDTH 14 0
BBX 11 13 2 0
BITMAP
3F80
7FC0
FFC0
E040
F800
FF80
7FC0
0FE0
00E0
C0E0
FFE0
FFC0
3F80
ENDCHAR
STARTCHAR t
ENCODING 116
SWIDTH 602 0
DWIDTH 14 0
BBX 10 17 2 0
BITMAP
1C00
1C00
1C00
1C00
FFC0
FFC0
FFC0
1C00
1C00
1C00
1C00
1C00
1C00
1C00
1FC0
0FC0
07C0
ENDCHAR
STARTCHAR u
ENCODING 117
SWIDTH 602 0
DWIDTH 14 0
BBX 11 13 2 0
BITMAP
E0E0
E0E0
E0E0
E0E0
E0E0
E0E0
E0E0
E0E0
E0E0
F1E0
FFE0
7FE0
3CE0
ENDCHAR
STARTCHAR v
ENCODING 118
SWIDTH 602 0
DWIDTH 14 0
BBX 12 13 1 0
BITMAP
F0F0
F0F0
70E0
70E0
79E0
39C0
39C0
39C0
1F80
1F80
1F80
0F00
0F00
ENDCHAR
STARTCHAR w
ENCODING 119
SWIDTH 602 0
DWIDTH 14 0
BBX 14 13 0 0
BITMAP
E01C
E01C
E01C
6318
77B8
77B8
77B8
77B8
34B0
3CF0
3CF0
3CF0
3CF0
ENDCHAR
STARTCHAR x
ENCODING 120
SWIDTH 602 0
DWIDTH 14 0
BBX 12 13 1 0
BITMAP
F0F0
79E0
39C0
3FC0
1F80
0F00
0F00
1F80
1F80
3FC0
39C0
79E0
F0F0
ENDCHAR
STARTCHAR y
ENCODING 121
SWIDTH 602 0
DWIDTH 14 0
BBX 12 18 1 -5
BITMAP
F0F0
70E0
70E0
79E0
39C0
39C0
3DC0
1F80
1F80
0F80
0F00
0F00
0F00
0E00
1E00
7E00
7C00
7800
ENDCHAR
STARTCHAR z
ENCODING 122
SWIDTH 602 0
DWIDTH 14 0
BBX 11 13 1 0
BITMAP
FFE0
FFE0
FFE0
03C0
0780
0F00
1F00
1E00
3C00
7800
FFE0
FFE0
FFE0
ENDCHAR
STARTCHAR braceleft
ENCODING 123
SWIDTH 602 0
DWIDTH 14 0
BBX 10 22 2 -4
BITMAP
07C0
0FC0
0E00
0E00
0E00
0E00
0E00
0E00
0E00
1E00
FC00
FC00
1E00
0E00
0E00
0E00
0E00
0E00
0E00
0E00
0FC0
07C0
ENDCHAR
STARTCHAR bar
ENCODING 124
SWIDTH 602 0
DWIDTH 14 0
BBX 3 24 6 -6
BITMAP
E0
E0
E0
E0
E0
E0
E0
E0
E0
E0
E0
E0
E0
E0
E0
E0
E0
E0
E0
E0
E0
E0
E0
E0
ENDCHAR
STARTCHAR braceright
ENCODING 125
SWIDTH 602 0
DWIDTH 14 0
BBX 10 22 3 -4
BITMAP
F800
FC00
1C00
1C00
1C00
1C00
1C00
1C00
1C00
1E00
0FC0
0FC0
1E00
1C00
1C00
1C00
1C00
1C00
1C00
1C00
FC00
F800
ENDCHAR
STARTCHAR asciitilde
ENCODING 126
SWIDTH 602 0
DWIDTH 14 0
BBX 12 4 1 6
BITMAP
7C10
FFF0
FFF0
83E0
ENDCHAR
STARTCHAR degree
ENCODING 176
SWIDTH 602 0
DWIDTH 14 0
BBX 8 8 3 10
BITMAP
3C
7E
E7
C3
C3
E7
7E
3C
ENDCHAR
STARTCHAR plusminus
ENCODING 177
SWIDTH 602 0
DWIDTH 14 0
BBX 13 15 1 0
BITMAP
0700
0700
0700
0700
FFF8
FFF8
FFF8
0700
0700
0700
0700
0000
FFF8
FFF8
FFF8
ENDCHAR
STARTCHAR mu
ENCODING 181
SWIDTH 602 0
DWIDTH 14 0
BBX 12 18 2 -5
BITMAP
E0E0
E0E0
E0E0
E0E0
E0E0
E0E0
E0E0
E0E0
E0E0
F1E0
FFF0
FF70
EE70
E000
E000
E000
E000
E000
ENDCHAR
STARTCHAR paragraph
ENCODING 182
SWIDTH 602 0
DWIDTH 14 0
BBX 12 20 1 -2
BITMAP
1FF0
3FF0
7F30
FF30
FF30
FF30
FF30
7F30
3F30
1F30
0330
0330
0330
0330
0330
0330
0330
0330
0330
0330
ENDCHAR
STARTCHAR Adieresis
ENCODING 196
SWIDTH 602 0
DWIDTH 14 0
BBX 14 22 0 0
BITMAP
1CE0
1CE0
1CE0
0000
0780
0FC0
0FC0
0FC0
0FC0
1CE0
1CE0
1CE0
1CE0
3CF0
3870
3FF0
7FF8
7FF8
7038
7038
F03C
F03C
ENDCHAR
STARTCHAR Odieresis
ENCODING 214
SWIDTH 602 0
DWIDTH 14 0
BBX 12 22 1 0
BITMAP
39C0
39C0
39C0
0000
0F00
3FC0
7FE0
70E0
70E0
E070
E070
E070
E070
E070
E070
E070
E070
70E0
70E0
7FE0
3FC0
0F00
ENDCHAR
STARTCHAR Udieresis
ENCODING 220
SWIDTH 602 0
DWIDTH 14 0
BBX 11 22 1 0
BITMAP
71C0
71C0
71C0
0000
E0E0
E0E0
E0E0
E0E0
E0E0
E0E0
E0E0
E0E0
E0E0
E0E0
E0E0
E0E0
E0E0
E0E0
F1E0
7FC0
7FC0
1F00
ENDCHAR
STARTCHAR germandbls
ENCODING 223
SWIDTH 602 0
DWIDTH 14 0
BBX 12 18 1 0
BITMAP
1F00
7F80
FF80
F3C0
E1C0
E7C0
EE00
EE00
EF00
EF80
E7C0
E1E0
E0F0
E070
E870
EFF0
EFE0
E7C0
ENDCHAR
STARTCHAR adieresis
ENCODING 228
SWIDTH 602 0
DWIDTH 14 0
BBX 12 19 1 0
BITMAP
1CE0
1CE0
1CE0
0000
0000
0000
3F80
7FE0
7FE0
60F0
0070
3FF0
7FF0
FFF0
E070
E0F0
FFF0
7FF0
3E70
ENDCHAR
STARTCHAR odieresis
ENCODING 246
SWIDTH 602 0
DWIDTH 14 0
BBX 12 19 1 0
BITMAP
39C0
39C0
39C0
0000
0000
0000
1F80
3FC0
7FE0
F0E0
E070
E070
E070
E070
E070
70E0
7FE0
3FC0
1F80
ENDCHAR
STARTCHAR udieresis
ENCODING 252
SWIDTH 602 0
DWIDTH 14 0
BBX 11 19 2 0
BITMAP
71C0
71C0
71C0
0000
0000
0000
E0E0
E0E0
E0E0
E0E0
E0E0
E0E0
E0E0
E0E0
E0E0
F1E0
FFE0
7FE0
3CE0
ENDCHAR
STARTCHAR Euro
ENCODING 8364
SWIDTH 602 0
DWIDTH 14 0
BBX 12 18 0 0
BITMAP
03E0
0FF0
0FF0
1E30
1C00
3800
7FE0
FFC0
3800
3800
7F80
FF00
3800
1C00
1E30
0FF0
0FF0
03E0
ENDCHAR
ENDFONT
